<mxfile host="app.diagrams.net" modified="2023-09-12T08:56:39.482Z" agent="Mozilla/5.0 (Macintosh; Intel Mac OS X 10_15_7) AppleWebKit/537.36 (KHTML, like Gecko) Chrome/116.0.0.0 Safari/537.36" etag="LabQ3Rvz8agu85C-twgO" version="21.7.4" type="github">
  <diagram name="第 1 页" id="C8wxoKjy-55rT7VO0fZb">
    <mxGraphModel dx="1818" dy="1039" grid="1" gridSize="10" guides="1" tooltips="1" connect="1" arrows="1" fold="1" page="1" pageScale="1" pageWidth="4681" pageHeight="3300" math="0" shadow="0">
      <root>
        <mxCell id="0" />
        <mxCell id="1" parent="0" />
        <mxCell id="wBYbJa-q2KpJWhrZFAjz-1" value="" style="rounded=0;whiteSpace=wrap;html=1;" vertex="1" parent="1">
          <mxGeometry x="520" y="610" width="950" height="150" as="geometry" />
        </mxCell>
        <mxCell id="wBYbJa-q2KpJWhrZFAjz-2" value="&lt;font style=&quot;font-size: 24px;&quot;&gt;供应链中台&lt;/font&gt;" style="rounded=0;whiteSpace=wrap;html=1;" vertex="1" parent="1">
          <mxGeometry x="570" y="680" width="150" height="60" as="geometry" />
        </mxCell>
        <mxCell id="wBYbJa-q2KpJWhrZFAjz-3" value="&lt;font style=&quot;font-size: 24px;&quot;&gt;业务中台&lt;/font&gt;" style="rounded=0;whiteSpace=wrap;html=1;" vertex="1" parent="1">
          <mxGeometry x="820" y="680" width="150" height="60" as="geometry" />
        </mxCell>
        <mxCell id="wBYbJa-q2KpJWhrZFAjz-4" value="&lt;font style=&quot;font-size: 24px;&quot;&gt;阿里妈妈&lt;/font&gt;" style="rounded=0;whiteSpace=wrap;html=1;" vertex="1" parent="1">
          <mxGeometry x="1060" y="680" width="150" height="60" as="geometry" />
        </mxCell>
        <mxCell id="wBYbJa-q2KpJWhrZFAjz-5" value="&lt;font style=&quot;font-size: 24px;&quot;&gt;其他&lt;/font&gt;" style="rounded=0;whiteSpace=wrap;html=1;" vertex="1" parent="1">
          <mxGeometry x="1280" y="680" width="150" height="60" as="geometry" />
        </mxCell>
        <mxCell id="wBYbJa-q2KpJWhrZFAjz-6" value="&lt;font style=&quot;font-size: 36px;&quot;&gt;投放基础&lt;/font&gt;" style="text;html=1;strokeColor=none;fillColor=none;align=center;verticalAlign=middle;whiteSpace=wrap;rounded=0;" vertex="1" parent="1">
          <mxGeometry x="870" y="630" width="160" height="30" as="geometry" />
        </mxCell>
        <mxCell id="wBYbJa-q2KpJWhrZFAjz-7" value="" style="rounded=0;whiteSpace=wrap;html=1;" vertex="1" parent="1">
          <mxGeometry x="520" y="110" width="240" height="485" as="geometry" />
        </mxCell>
        <mxCell id="wBYbJa-q2KpJWhrZFAjz-9" value="&lt;span style=&quot;font-size: 24px;&quot;&gt;商家管理&lt;/span&gt;" style="rounded=0;whiteSpace=wrap;html=1;" vertex="1" parent="1">
          <mxGeometry x="565" y="200" width="150" height="60" as="geometry" />
        </mxCell>
        <mxCell id="wBYbJa-q2KpJWhrZFAjz-10" value="&lt;span style=&quot;font-size: 24px;&quot;&gt;计划预警&lt;/span&gt;" style="rounded=0;whiteSpace=wrap;html=1;" vertex="1" parent="1">
          <mxGeometry x="565" y="280" width="150" height="60" as="geometry" />
        </mxCell>
        <mxCell id="wBYbJa-q2KpJWhrZFAjz-11" value="&lt;span style=&quot;font-size: 24px;&quot;&gt;计划调控&lt;/span&gt;" style="rounded=0;whiteSpace=wrap;html=1;" vertex="1" parent="1">
          <mxGeometry x="565" y="360" width="150" height="60" as="geometry" />
        </mxCell>
        <mxCell id="wBYbJa-q2KpJWhrZFAjz-12" value="&lt;span style=&quot;font-size: 24px;&quot;&gt;商品管理&lt;/span&gt;" style="rounded=0;whiteSpace=wrap;html=1;" vertex="1" parent="1">
          <mxGeometry x="565" y="440" width="150" height="60" as="geometry" />
        </mxCell>
        <mxCell id="wBYbJa-q2KpJWhrZFAjz-13" value="&lt;span style=&quot;font-size: 24px;&quot;&gt;活动调控&lt;/span&gt;" style="rounded=0;whiteSpace=wrap;html=1;" vertex="1" parent="1">
          <mxGeometry x="565" y="520" width="150" height="60" as="geometry" />
        </mxCell>
        <mxCell id="wBYbJa-q2KpJWhrZFAjz-14" value="&lt;font style=&quot;font-size: 36px;&quot;&gt;小二控制台&lt;/font&gt;" style="text;html=1;strokeColor=none;fillColor=none;align=center;verticalAlign=middle;whiteSpace=wrap;rounded=0;" vertex="1" parent="1">
          <mxGeometry x="545" y="140" width="190" height="30" as="geometry" />
        </mxCell>
        <mxCell id="wBYbJa-q2KpJWhrZFAjz-15" value="" style="rounded=0;whiteSpace=wrap;html=1;" vertex="1" parent="1">
          <mxGeometry x="770" y="410" width="320" height="180" as="geometry" />
        </mxCell>
        <mxCell id="wBYbJa-q2KpJWhrZFAjz-16" value="&lt;font style=&quot;font-size: 24px;&quot;&gt;预算调拨&lt;/font&gt;" style="rounded=0;whiteSpace=wrap;html=1;" vertex="1" parent="1">
          <mxGeometry x="785" y="470" width="115" height="50" as="geometry" />
        </mxCell>
        <mxCell id="wBYbJa-q2KpJWhrZFAjz-17" value="&lt;font style=&quot;font-size: 24px;&quot;&gt;撞线控制&lt;/font&gt;" style="rounded=0;whiteSpace=wrap;html=1;" vertex="1" parent="1">
          <mxGeometry x="785" y="530" width="115" height="50" as="geometry" />
        </mxCell>
        <mxCell id="wBYbJa-q2KpJWhrZFAjz-18" value="&lt;font style=&quot;font-size: 24px;&quot;&gt;充值&lt;/font&gt;" style="rounded=0;whiteSpace=wrap;html=1;" vertex="1" parent="1">
          <mxGeometry x="922.5" y="470" width="65" height="50" as="geometry" />
        </mxCell>
        <mxCell id="wBYbJa-q2KpJWhrZFAjz-20" value="&lt;font style=&quot;font-size: 24px;&quot;&gt;冻结&lt;/font&gt;" style="rounded=0;whiteSpace=wrap;html=1;" vertex="1" parent="1">
          <mxGeometry x="1010" y="470" width="65" height="50" as="geometry" />
        </mxCell>
        <mxCell id="wBYbJa-q2KpJWhrZFAjz-21" value="&lt;font style=&quot;font-size: 24px;&quot;&gt;调拨&lt;/font&gt;" style="rounded=0;whiteSpace=wrap;html=1;" vertex="1" parent="1">
          <mxGeometry x="922.5" y="530" width="65" height="50" as="geometry" />
        </mxCell>
        <mxCell id="wBYbJa-q2KpJWhrZFAjz-23" value="&lt;font style=&quot;font-size: 24px;&quot;&gt;计费&lt;/font&gt;" style="rounded=0;whiteSpace=wrap;html=1;" vertex="1" parent="1">
          <mxGeometry x="1010" y="530" width="65" height="50" as="geometry" />
        </mxCell>
        <mxCell id="wBYbJa-q2KpJWhrZFAjz-24" value="&lt;font style=&quot;font-size: 36px;&quot;&gt;资金体系&lt;/font&gt;" style="text;html=1;strokeColor=none;fillColor=none;align=center;verticalAlign=middle;whiteSpace=wrap;rounded=0;" vertex="1" parent="1">
          <mxGeometry x="850" y="430" width="160" height="30" as="geometry" />
        </mxCell>
        <mxCell id="wBYbJa-q2KpJWhrZFAjz-25" value="" style="rounded=0;whiteSpace=wrap;html=1;" vertex="1" parent="1">
          <mxGeometry x="1100" y="410" width="370" height="180" as="geometry" />
        </mxCell>
        <mxCell id="wBYbJa-q2KpJWhrZFAjz-26" value="" style="whiteSpace=wrap;html=1;aspect=fixed;" vertex="1" parent="1">
          <mxGeometry x="1110" y="474" width="110" height="110" as="geometry" />
        </mxCell>
        <mxCell id="wBYbJa-q2KpJWhrZFAjz-27" value="&lt;font style=&quot;font-size: 18px;&quot;&gt;人群定向&lt;/font&gt;" style="rounded=0;whiteSpace=wrap;html=1;" vertex="1" parent="1">
          <mxGeometry x="1120" y="510" width="90" height="30" as="geometry" />
        </mxCell>
        <mxCell id="wBYbJa-q2KpJWhrZFAjz-28" value="&lt;font style=&quot;font-size: 18px;&quot;&gt;关键词&lt;/font&gt;" style="rounded=0;whiteSpace=wrap;html=1;" vertex="1" parent="1">
          <mxGeometry x="1120" y="550" width="90" height="30" as="geometry" />
        </mxCell>
        <mxCell id="wBYbJa-q2KpJWhrZFAjz-29" value="&lt;font style=&quot;font-size: 24px;&quot;&gt;阿里妈妈&lt;/font&gt;" style="text;html=1;strokeColor=none;fillColor=none;align=center;verticalAlign=middle;whiteSpace=wrap;rounded=0;" vertex="1" parent="1">
          <mxGeometry x="1115" y="480" width="100" height="20" as="geometry" />
        </mxCell>
        <mxCell id="wBYbJa-q2KpJWhrZFAjz-30" value="" style="whiteSpace=wrap;html=1;aspect=fixed;" vertex="1" parent="1">
          <mxGeometry x="1230" y="474" width="110" height="110" as="geometry" />
        </mxCell>
        <mxCell id="wBYbJa-q2KpJWhrZFAjz-31" value="&lt;font style=&quot;font-size: 18px;&quot;&gt;人群定向&lt;/font&gt;" style="rounded=0;whiteSpace=wrap;html=1;" vertex="1" parent="1">
          <mxGeometry x="1240" y="510" width="90" height="30" as="geometry" />
        </mxCell>
        <mxCell id="wBYbJa-q2KpJWhrZFAjz-32" value="&lt;font style=&quot;font-size: 18px;&quot;&gt;排序&lt;/font&gt;" style="rounded=0;whiteSpace=wrap;html=1;" vertex="1" parent="1">
          <mxGeometry x="1240" y="550" width="90" height="30" as="geometry" />
        </mxCell>
        <mxCell id="wBYbJa-q2KpJWhrZFAjz-33" value="&lt;font style=&quot;font-size: 24px;&quot;&gt;推荐&lt;/font&gt;" style="text;html=1;strokeColor=none;fillColor=none;align=center;verticalAlign=middle;whiteSpace=wrap;rounded=0;" vertex="1" parent="1">
          <mxGeometry x="1235" y="480" width="100" height="20" as="geometry" />
        </mxCell>
        <mxCell id="wBYbJa-q2KpJWhrZFAjz-34" value="" style="whiteSpace=wrap;html=1;aspect=fixed;" vertex="1" parent="1">
          <mxGeometry x="1350" y="474" width="110" height="110" as="geometry" />
        </mxCell>
        <mxCell id="wBYbJa-q2KpJWhrZFAjz-35" value="&lt;font style=&quot;font-size: 18px;&quot;&gt;竞价词&lt;/font&gt;" style="rounded=0;whiteSpace=wrap;html=1;" vertex="1" parent="1">
          <mxGeometry x="1360" y="510" width="90" height="30" as="geometry" />
        </mxCell>
        <mxCell id="wBYbJa-q2KpJWhrZFAjz-36" value="&lt;font style=&quot;font-size: 18px;&quot;&gt;CPC出价&lt;/font&gt;" style="rounded=0;whiteSpace=wrap;html=1;" vertex="1" parent="1">
          <mxGeometry x="1360" y="550" width="90" height="30" as="geometry" />
        </mxCell>
        <mxCell id="wBYbJa-q2KpJWhrZFAjz-37" value="&lt;font style=&quot;font-size: 24px;&quot;&gt;搜索&lt;/font&gt;" style="text;html=1;strokeColor=none;fillColor=none;align=center;verticalAlign=middle;whiteSpace=wrap;rounded=0;" vertex="1" parent="1">
          <mxGeometry x="1355" y="480" width="100" height="20" as="geometry" />
        </mxCell>
        <mxCell id="wBYbJa-q2KpJWhrZFAjz-38" value="&lt;font style=&quot;font-size: 36px;&quot;&gt;算法&lt;/font&gt;" style="text;html=1;strokeColor=none;fillColor=none;align=center;verticalAlign=middle;whiteSpace=wrap;rounded=0;" vertex="1" parent="1">
          <mxGeometry x="1200" y="430" width="160" height="30" as="geometry" />
        </mxCell>
        <mxCell id="wBYbJa-q2KpJWhrZFAjz-40" value="" style="whiteSpace=wrap;html=1;aspect=fixed;" vertex="1" parent="1">
          <mxGeometry x="770" y="240" width="160" height="160" as="geometry" />
        </mxCell>
        <mxCell id="wBYbJa-q2KpJWhrZFAjz-41" value="&lt;font style=&quot;font-size: 24px;&quot;&gt;投放中枢&lt;/font&gt;" style="text;html=1;strokeColor=none;fillColor=none;align=center;verticalAlign=middle;whiteSpace=wrap;rounded=0;" vertex="1" parent="1">
          <mxGeometry x="770" y="242" width="160" height="30" as="geometry" />
        </mxCell>
        <mxCell id="wBYbJa-q2KpJWhrZFAjz-43" value="&lt;font style=&quot;font-size: 24px;&quot;&gt;预算管理&lt;/font&gt;" style="rounded=0;whiteSpace=wrap;html=1;" vertex="1" parent="1">
          <mxGeometry x="787.5" y="273" width="125" height="36" as="geometry" />
        </mxCell>
        <mxCell id="wBYbJa-q2KpJWhrZFAjz-50" value="" style="whiteSpace=wrap;html=1;aspect=fixed;" vertex="1" parent="1">
          <mxGeometry x="1040" y="240" width="160" height="160" as="geometry" />
        </mxCell>
        <mxCell id="wBYbJa-q2KpJWhrZFAjz-51" value="&lt;font style=&quot;font-size: 24px;&quot;&gt;推荐引擎&lt;/font&gt;" style="text;html=1;strokeColor=none;fillColor=none;align=center;verticalAlign=middle;whiteSpace=wrap;rounded=0;" vertex="1" parent="1">
          <mxGeometry x="1040" y="250" width="160" height="30" as="geometry" />
        </mxCell>
        <mxCell id="wBYbJa-q2KpJWhrZFAjz-55" value="&lt;font style=&quot;font-size: 24px;&quot;&gt;流量接入&lt;/font&gt;" style="rounded=0;whiteSpace=wrap;html=1;" vertex="1" parent="1">
          <mxGeometry x="787.5" y="317" width="125" height="36" as="geometry" />
        </mxCell>
        <mxCell id="wBYbJa-q2KpJWhrZFAjz-56" value="&lt;font style=&quot;font-size: 24px;&quot;&gt;调优中心&lt;/font&gt;" style="rounded=0;whiteSpace=wrap;html=1;" vertex="1" parent="1">
          <mxGeometry x="787.5" y="359" width="125" height="36" as="geometry" />
        </mxCell>
        <mxCell id="wBYbJa-q2KpJWhrZFAjz-57" value="&lt;font style=&quot;font-size: 24px;&quot;&gt;广告库&lt;/font&gt;" style="rounded=0;whiteSpace=wrap;html=1;" vertex="1" parent="1">
          <mxGeometry x="1057.5" y="292" width="125" height="36" as="geometry" />
        </mxCell>
        <mxCell id="wBYbJa-q2KpJWhrZFAjz-58" value="&lt;font style=&quot;font-size: 24px;&quot;&gt;召回策略&lt;/font&gt;" style="rounded=0;whiteSpace=wrap;html=1;" vertex="1" parent="1">
          <mxGeometry x="1057.5" y="340" width="125" height="36" as="geometry" />
        </mxCell>
        <mxCell id="wBYbJa-q2KpJWhrZFAjz-59" value="" style="whiteSpace=wrap;html=1;aspect=fixed;" vertex="1" parent="1">
          <mxGeometry x="1310" y="235" width="160" height="160" as="geometry" />
        </mxCell>
        <mxCell id="wBYbJa-q2KpJWhrZFAjz-60" value="&lt;font style=&quot;font-size: 24px;&quot;&gt;数据洞察&lt;/font&gt;" style="text;html=1;strokeColor=none;fillColor=none;align=center;verticalAlign=middle;whiteSpace=wrap;rounded=0;" vertex="1" parent="1">
          <mxGeometry x="1307.5" y="243" width="160" height="30" as="geometry" />
        </mxCell>
        <mxCell id="wBYbJa-q2KpJWhrZFAjz-61" value="&lt;font style=&quot;font-size: 24px;&quot;&gt;数据中心&lt;/font&gt;" style="rounded=0;whiteSpace=wrap;html=1;" vertex="1" parent="1">
          <mxGeometry x="1330" y="292" width="125" height="36" as="geometry" />
        </mxCell>
        <mxCell id="wBYbJa-q2KpJWhrZFAjz-62" value="&lt;font style=&quot;font-size: 24px;&quot;&gt;效果可视化&lt;/font&gt;" style="rounded=0;whiteSpace=wrap;html=1;" vertex="1" parent="1">
          <mxGeometry x="1330" y="334.5" width="125" height="36" as="geometry" />
        </mxCell>
        <mxCell id="wBYbJa-q2KpJWhrZFAjz-63" value="" style="rounded=0;whiteSpace=wrap;html=1;" vertex="1" parent="1">
          <mxGeometry x="770" y="110" width="700" height="70" as="geometry" />
        </mxCell>
      </root>
    </mxGraphModel>
  </diagram>
</mxfile>
